<?xml version="1.0" encoding="UTF-8" standalone="no"?>
<!-- Created with Inkscape (http://www.inkscape.org/) -->

<?xml-stylesheet type="text/css" href="../style.css"?><svg
   version="1.1"
   id="svg1"
   width="1132.8597"
   height="1155.2485"
   viewBox="0 0 1132.8598 1155.2485"
   xml:space="preserve"
   xmlns="http://www.w3.org/2000/svg"
   xmlns:svg="http://www.w3.org/2000/svg"><defs
     id="defs1"><!--    <style id="style1">--><!--      <![CDATA[--><!--        .chain {--><!--          fill:#000000;--><!--        }--><!--        .doubleStitch {--><!--          fill:#000000;--><!--        }--><!--      ]]>--><!--    </style>--></defs><g
     id="g110"
     transform="translate(-1531.2431,-2447.4509)"><path
       style="fill:#000000;stroke-width:1.98795"
       d="m 4289.8516,5261.3322 c -7.1734,-5.5274 -8.7585,-12.0357 -5.4163,-22.2397 7.0141,-21.4149 42.9267,-13.8587 39.9746,8.411 -2.293,17.289 -20.5728,24.6046 -34.5583,13.8287 z"
       id="path69-4-3"
       class="slipSt"
       transform="matrix(0.51703992,0,0,0.51703992,77.113462,114.94163)" /><path
       style="fill:#000000;stroke-width:1.02785"
       d="m 1541.1592,2825.8792 c -3.709,-2.8579 -4.5285,-6.2229 -2.8005,-11.4988 3.6266,-11.0724 22.1948,-7.1655 20.6685,4.3489 -1.1856,8.939 -10.637,12.7215 -17.868,7.1499 z"
       id="path69-4-6"
       class="slipSt" /><path
       style="fill:#000000;stroke-width:1.02785"
       d="m 2271.8635,3600.0867 c -3.7089,-2.8579 -4.5285,-6.2229 -2.8004,-11.4988 3.6265,-11.0724 22.1948,-7.1655 20.6684,4.3489 -1.1855,8.939 -10.6369,12.7215 -17.868,7.1499 z"
       id="path69-4-4"
       class="slipSt" /><path
       style="stroke-width:2.04636"
       d="m 2281.6691,3186.1448 c 2.7759,-9.7157 5.2649,-12.2781 11.9266,-12.2781 15.7944,0 18.9102,50.6392 3.6969,60.0843 -12.8462,7.9756 -22.8312,-22.578 -15.6235,-47.8062 z"
       id="path84-7"
       class="chain" /><path
       d="m 2215.8166,3384.6418 h 57.2981 v -10.3664 c 0,-21.5531 9.632,-24.5043 10.6504,-3.2633 0.8927,18.6152 8.2686,18.8618 9.8132,0.3283 0.9045,-10.8536 1.5638,-12.3547 5.6829,-12.9394 l 4.66,-0.6613 -0.5673,30.3335 c -0.6464,34.5741 -7.365,46.983 -9.7756,18.0555 -1.5614,-18.735 -8.9252,-18.2546 -9.8213,0.6404 -0.9244,19.4957 -9.293,18.5011 -10.2302,-1.2157 l -0.6108,-12.8532 -50.5482,0.1284 c -27.8014,0.073 -53.5407,0.1003 -57.1986,0.064 -5.2645,-0.053 -6.6507,-0.9189 -6.6507,-4.1586 0,-3.9954 1.3642,-4.0926 57.2981,-4.0926 z"
       id="path81-8"
       class="doubleStitch"
       style="stroke-width:0.51704" /><path
       d="m 2167.2156,3353.1201 c 4.7833,-1.7662 29.8768,-10.2308 55.7633,-18.8103 55.4293,-18.371 50.8395,-15.2264 50.3298,-34.4843 -0.4052,-15.3131 -0.361,-15.4552 4.8144,-15.4552 5.1026,0 5.2234,0.3304 5.2234,14.3244 0,14.1807 0.7035,15.4965 6.9948,13.0824 2.4784,-0.9511 3.237,-4.2679 3.237,-14.154 0,-12.8125 1.7429,-15.9369 7.6738,-13.7557 4.2681,1.5696 3.5879,59.5804 -0.7183,61.2328 -4.6161,1.7714 -6.8878,-2.8794 -6.9242,-14.1752 -0.033,-10.4679 -0.3156,-10.8075 -6.3051,-7.6022 -3.0122,1.6125 -3.958,4.3171 -3.958,11.3193 0,6.5485 -0.9444,9.5633 -3.2762,10.4581 -4.0304,1.5465 -6.8828,-2.6068 -6.9243,-10.0825 -0.041,-7.4242 0.7956,-7.5731 -44.0281,7.8246 -55.0532,18.9115 -64.4777,21.7671 -67.7273,20.52 -5.5732,-2.1386 -2.7691,-7.0691 5.825,-10.2422 z"
       id="path80-4"
       class="doubleStitch"
       style="stroke-width:0.51704" /><path
       d="m 2162.2177,3044.946 c 2.1913,0 16.2985,4.2166 31.3495,9.3703 15.0509,5.1535 30.5883,10.2616 34.5276,11.3514 3.9392,1.0897 9.0039,2.7868 11.2549,3.7713 6.6036,2.8883 30.2526,10.2952 32.8707,10.2952 1.4204,0 2.134,-2.3161 1.7445,-5.6614 -0.8373,-7.1917 1.8831,-11.6691 6.1054,-10.0488 2.3062,0.885 3.2762,3.8814 3.2762,10.1208 0,17.448 9.74,19.2861 10.6412,2.0083 0.5319,-10.1978 1.1593,-11.7666 4.7065,-11.7666 5.0579,0 7.6081,57.5626 2.6848,60.6053 -4.845,2.9945 -7.8007,-2.5352 -7.8007,-14.5939 0,-11.5 -1.6322,-14.2928 -8.3529,-14.2928 -1.0334,0 -1.8789,6.3475 -1.8789,14.1055 0,24.9557 -9.6306,21.4026 -10.6454,-3.9275 l -0.6096,-15.2185 -40.9272,-13.9836 c -37.4273,-12.788 -47.5306,-16.0881 -65.4835,-21.3892 -7.3362,-2.1661 -10.101,-10.7458 -3.4631,-10.7458 z"
       id="path79-8"
       class="doubleStitch"
       style="stroke-width:0.51704" /><path
       d="m 2215.305,3015.8179 56.7865,-0.544 0.5453,-8.1855 c 1.5006,-22.5179 10.1007,-26.0777 11.1237,-4.6043 0.9364,19.6613 9.306,20.6042 10.2283,1.1523 1.5437,-32.5577 9.8213,-18.4379 9.8213,16.7534 0,35.2288 -8.2792,49.3073 -9.8226,16.7028 -0.5046,-10.6606 -1.1719,-12.7553 -3.7485,-11.7666 -1.724,0.6616 -3.9802,1.2029 -5.0136,1.2029 -1.0334,0 -1.8789,5.5252 -1.8789,12.2781 0,10.8745 -0.4635,12.2782 -4.0539,12.2782 -4.5971,0 -6.1837,-4.8658 -5.6708,-17.394 l 0.335,-8.1855 -57.7192,-0.5434 c -55.864,-0.526 -57.7191,-0.6731 -57.7191,-4.5721 0,-3.8971 1.8504,-4.0462 56.7865,-4.5723 z"
       id="path78-2"
       class="doubleStitch"
       style="stroke-width:0.51704" /><path
       d="m 2158.3849,3410.3039 c 1.914,-1.1831 23.5131,4.7981 55.3854,15.3373 19.4142,6.4199 52.0051,16.111 56.2587,16.7292 3.4213,0.4974 3.9779,-0.4205 3.4634,-5.7099 -0.6413,-6.5914 3.8664,-12.5043 7.7181,-10.1237 1.1748,0.7259 2.136,5.8699 2.136,11.4311 0,5.561 0.8455,10.1109 1.8789,10.1109 1.0334,0 3.3356,0.559 5.1159,1.2422 2.6849,1.0302 3.237,-0.4975 3.237,-8.958 0,-10.2498 3.6889,-16.5499 8.0958,-13.8262 3.2645,2.0174 2.8649,59.717 -0.422,60.9257 -5.9309,2.1812 -7.6738,-0.9433 -7.6738,-13.7557 0,-9.8861 -0.7586,-13.203 -3.237,-14.1541 -6.2874,-2.4126 -6.9948,-1.1017 -6.9948,12.9616 0,14.5231 -1.312,17.4303 -6.8979,15.2867 -2.4362,-0.9347 -3.312,-5.0959 -3.7659,-17.8894 -0.5263,-14.8407 -1.0406,-16.746 -4.6839,-17.3494 -3.6655,-0.6069 -26.7779,-7.7254 -90.0149,-27.7241 -19.5801,-6.192 -25.7243,-10.7485 -19.599,-14.5342 z"
       id="path77-5"
       class="doubleStitch"
       style="stroke-width:0.51704" /><path
       d="m 2162.0997,2989.4669 c 3.0951,-1.1949 14.3757,-4.9427 25.0679,-8.3285 10.6922,-3.3858 30.4907,-9.6722 43.9967,-13.9697 13.506,-4.2976 28.47,-8.8502 33.2533,-10.117 l 8.6971,-2.3032 0.031,-14.7572 c 0.035,-16.0774 1.8638,-21.1543 6.9243,-19.2123 2.529,0.9704 3.2762,4.2271 3.2762,14.2816 0,14.4625 0.5595,15.7586 6.1689,14.2917 3.2423,-0.8478 3.9849,-3.2677 4.4859,-14.6135 0.531,-12.0332 1.0708,-13.5974 4.6929,-13.5974 5.058,0 7.6081,57.5625 2.6848,60.6053 -4.5918,2.8378 -7.8007,-2.5039 -7.8007,-12.9854 0,-8.4605 -0.5521,-9.9883 -3.2369,-8.9581 -1.7804,0.6832 -4.0825,1.2422 -5.116,1.2422 -1.0334,0 -1.8789,4.5499 -1.8789,10.111 0,5.561 -0.9614,10.7051 -2.136,11.4311 -3.7571,2.3219 -8.0958,-3.3996 -8.0958,-10.6756 0,-6.2321 -0.4989,-6.8913 -4.3011,-5.6846 -2.3653,0.7508 -9.9625,3.0313 -16.8824,5.0678 -13.1145,3.8596 -39.8545,12.2389 -67.8332,21.2562 -18.9445,6.1057 -27.6258,6.7997 -27.6258,2.2083 0,-1.7161 2.5324,-4.0978 5.6275,-5.2927 z"
       id="path76-0"
       class="doubleStitch"
       style="stroke-width:0.51704" /><path
       d="m 2132.0869,2937.5122 c 3.299,-10.1295 8.8542,-27.6258 12.3451,-38.8808 3.4909,-11.255 8.0885,-25.7622 10.2169,-32.2383 5.0244,-15.2885 4.9497,-15.8511 -2.102,-15.8511 -7.8812,0 -12.4456,-1.8763 -12.4456,-5.1159 0,-3.4471 4.6559,-5.1159 14.273,-5.1159 5.2239,0 8.2091,-1.0688 9.0412,-3.237 2.3181,-6.0409 1.2544,-6.9948 -7.7991,-6.9948 -14.6673,0 -22.2601,-6.4361 -10.9108,-9.2484 13.0971,-3.2455 57.8097,-0.049 57.8097,4.1325 0,3.5725 -1.5606,4.1675 -12.2782,4.6816 -11.4839,0.5508 -17.394,3.5821 -17.394,8.9212 0,0.861 6.6762,1.8361 14.8361,2.1668 23.6317,0.9577 22.2228,8.5241 -1.7458,9.3762 l -16.582,0.5895 -2.4907,8.6191 c -3.3235,11.5005 -18.1188,58.9755 -22.7747,73.0794 -2.0437,6.1903 -4.7871,15.3989 -6.0965,20.4636 -2.683,10.3762 -5.2723,14.3245 -9.3938,14.3245 -4.2904,0 -3.2259,-9.0477 3.4912,-29.6722 z"
       id="path73-3"
       class="doubleStitch"
       style="stroke-width:0.51704" /><path
       d="m 2074.9782,3559.6599 c 1.4899,-0.5262 7.3135,-1.2142 12.9409,-1.5287 l 10.2318,-0.5722 1.0232,-57.2981 c 1.5221,-85.244 6.9028,-84.8866 7.7056,0.5116 l 0.5435,57.8096 h 13.0507 c 9.1998,0 13.3696,0.8323 14.1325,2.8203 1.9027,4.9585 -3.1874,7.4117 -15.378,7.4117 -11.2959,0 -11.8688,0.2469 -11.8688,5.1158 0,4.9236 0.4919,5.1158 13.0823,5.1158 13.4839,0 18.4881,3.2136 12.606,8.0953 -5.4807,4.5486 -59.4533,1.8442 -59.4533,-2.9793 0,-3.5911 1.5673,-4.1673 12.7898,-4.7019 19.6358,-0.9354 19.653,-10.1229 0.021,-11.0596 -12.4507,-0.594 -19.414,-5.9205 -11.4269,-8.7403 z"
       id="path72-2"
       class="doubleStitch"
       style="stroke-width:0.51704" /><path
       d="m 2073.865,2821.2815 c 2.4644,-2.4645 56.9911,-1.6761 59.5279,0.8608 5.0658,5.0656 0.3813,7.9361 -12.951,7.9361 -12.5904,0 -13.0823,0.1923 -13.0823,5.1159 0,4.8766 0.5623,5.1159 12.0274,5.1159 8.4534,0 12.8231,0.9585 14.7046,3.2255 3.9457,4.7542 -0.7377,6.937 -14.9655,6.9749 l -11.7665,0.031 v 57.2981 c 0,55.9338 -0.098,57.298 -4.0928,57.298 -3.9951,0 -4.0927,-1.3642 -4.0927,-57.2004 v -57.2004 l -12.7897,-0.6092 c -18.7794,-0.8946 -19.1634,-8.2636 -0.5116,-9.8179 18.2099,-1.5175 18.2224,-8.7125 0.021,-10.2318 -11.7414,-0.9799 -16.4202,-4.4024 -12.0259,-8.7968 z"
       id="path71-6"
       class="doubleStitch"
       style="stroke-width:0.51704" /><path
       d="m 2058.2469,3202.5158 h 57.2981 v -12.3424 c 0,-9.4291 0.7733,-12.6391 3.276,-13.5995 4.7247,-1.813 6.8887,2.9365 6.9245,15.1985 0.029,10.087 0.3438,10.7434 5.1472,10.7434 4.9233,0 5.1159,-0.4921 5.1159,-13.0824 0,-13.3324 2.8704,-18.0167 7.936,-12.9511 2.48,2.4799 3.2424,43.2982 1.0168,54.4266 -2.5078,12.5386 -8.6651,8.3349 -9.3668,-6.3948 -0.9366,-19.6613 -9.306,-20.6042 -10.2285,-1.1523 -0.8959,18.8951 -8.2599,19.3756 -9.8211,0.6408 l -1.0232,-12.2783 -56.7865,-0.5439 c -55.0886,-0.5277 -56.7864,-0.6653 -56.7864,-4.6042 0,-3.953 1.5163,-4.0604 57.298,-4.0604 z"
       id="path66-9"
       class="doubleStitch"
       style="stroke-width:0.51704" /><path
       d="m 2015.6264,3558.1556 16.9863,-0.5966 10.406,-30.6953 c 5.7235,-16.8826 12.524,-37.1415 15.1126,-45.02 12.3686,-37.646 14.6327,-41.9436 19.8256,-37.6337 2.4619,2.0431 1.6645,7.0396 -2.9038,18.1933 -1.1523,2.8136 -4.5501,12.9432 -7.5505,22.51 -3.0003,9.5667 -6.2823,19.2357 -7.2932,21.4868 -2.0922,4.6586 -16.287,48.8621 -16.287,50.7184 0,0.6693 3.4533,1.5025 7.6738,1.8519 12.6337,1.0454 10.8658,8.4942 -2.3361,9.8437 -16.0986,1.6455 -18.0482,10.2316 -2.3229,10.2316 11.5576,0 14.2117,1.5281 12.1205,6.9778 -1.3213,3.4435 -39.4197,4.8432 -53.7603,1.9752 -13.0562,-2.6113 -8.3193,-8.953 6.6876,-8.953 10.0416,0 13.371,-0.7522 14.3245,-3.2366 2.3522,-6.1299 1.1991,-6.8098 -12.5709,-7.4132 -23.4247,-1.026 -21.8798,-9.4058 1.8878,-10.2403 z"
       id="path65-6"
       class="doubleStitch"
       style="stroke-width:0.51704" /><path
       d="m 1999.5531,3231.474 c 2.7779,-2.3055 9.3905,-0.3215 53.5779,16.0739 5.6275,2.088 20.3613,7.4587 32.7418,11.9346 12.3805,4.476 24.1215,8.7824 26.0911,9.5696 3.0564,1.2218 3.5811,0.218 3.5811,-6.8522 0,-4.556 0.9612,-8.8777 2.136,-9.6038 4.1161,-2.5438 8.0958,3.5344 8.0958,12.3652 0,8.3111 2.1673,11.2236 8.3528,11.2236 1.0334,0 1.879,-4.9664 1.879,-11.0363 0,-11.0627 3.6902,-16.3755 7.53,-10.8406 4.1277,5.95 1.954,59.7344 -2.4141,59.7344 -3.5725,0 -4.1676,-1.5605 -4.6817,-12.2781 -0.4078,-8.5017 -1.6297,-13.065 -3.9722,-14.8362 -5.774,-4.3653 -6.6928,-2.9675 -6.7251,10.232 -0.035,14.2022 -2.0132,19.1291 -6.9245,17.2447 -2.6218,-1.0062 -3.276,-4.4899 -3.276,-17.4439 0,-15.7693 -0.1453,-16.2428 -5.6275,-18.3527 -3.0951,-1.1911 -16.2174,-5.9869 -29.1606,-10.6574 -12.9432,-4.6705 -28.1374,-10.1987 -33.7649,-12.285 -5.6275,-2.0862 -18.9071,-6.8409 -29.5105,-10.566 -19.6252,-6.8945 -22.9731,-9.439 -17.9284,-13.6258 z"
       id="path64-6"
       class="doubleStitch"
       style="stroke-width:0.51704" /><path
       d="m 1998.526,3172.5016 c 0.7698,-1.2062 11.9897,-6.0671 24.9329,-10.8022 12.9432,-4.735 26.756,-9.8209 30.6954,-11.3021 3.9392,-1.481 16.8312,-6.0762 28.6489,-10.2115 36.7838,-12.8714 32.7418,-9.412 32.7418,-28.0223 0,-12.9541 0.6542,-16.438 3.276,-17.444 4.8354,-1.8555 6.8893,2.9982 6.9245,16.364 0.051,19.4541 8.9704,16.7104 9.8407,-3.0271 0.5965,-13.531 3.9045,-19.028 8.042,-13.3644 3.585,4.9071 0.5939,61.0619 -3.2142,60.3384 -2.5397,-0.4823 -3.5375,-3.3457 -4.0053,-11.4943 -0.9021,-15.715 -9.0449,-15.2108 -10.6319,0.6585 -1.2698,12.6969 -8.7101,15.402 -9.8499,3.581 -0.8116,-8.4167 -1.2545,-8.3912 -29.3338,1.6881 -12.7766,4.5863 -28.2951,10.0669 -34.4852,12.1792 -6.1903,2.1124 -18.9575,6.6477 -28.3714,10.0786 -21.2602,7.7482 -29.8275,8.0133 -25.2105,0.7801 z"
       id="path63-1"
       class="doubleStitch"
       style="stroke-width:0.51704" /><path
       d="m 1999.8169,2821.9833 c 5.4807,-4.5487 59.4532,-1.8442 59.4532,2.9792 0,3.4844 -1.7055,4.2448 -11.4747,5.1159 -15.6486,1.3953 -14.6376,8.5932 1.4369,10.2318 13.2269,1.3482 15.0154,8.7966 2.3639,9.8437 -9.4619,0.7831 -10.6788,-6.077 9.7203,54.7938 16.9809,50.6713 19.1062,58.8907 15.7615,60.9578 -4.1971,2.5939 -7.9111,-5.8663 -25.5539,-58.2119 l -18.918,-56.1285 -13.2706,-0.5234 c -29.8892,-1.1789 -33.2294,-10.7315 -3.7524,-10.7315 19.758,0 17.316,-8.9278 -2.6831,-9.8095 -13.9338,-0.6144 -18.7938,-3.7782 -13.0831,-8.5174 z"
       id="path62-3"
       class="doubleStitch"
       style="stroke-width:0.51704" /><path
       d="m 1958.4613,3081.7805 c 7.865,-21.9471 14.7882,-41.2853 15.385,-42.9735 0.5969,-1.6883 3.2518,-9.0552 5.8997,-16.3708 2.6481,-7.3158 4.8186,-13.476 4.8235,-13.6895 0,-0.2134 -3.4442,-0.6738 -7.6648,-1.0231 -12.3792,-1.0246 -10.9613,-8.6074 1.7638,-9.4328 7.72,-0.5007 9.8532,-1.5248 11.7225,-5.6275 l 2.2853,-5.0153 h -12.2344 c -10.7412,0 -12.2343,-0.4842 -12.2343,-3.9673 0,-8.3544 59.8368,-8.979 61.0215,-0.637 0.61,4.295 -0.1,4.6043 -10.5759,4.6043 -23.2335,0 -26.7583,9.6482 -3.8909,10.6499 24.1384,1.0574 21.7555,9.4314 -2.9148,10.2437 -16.1987,0.5334 -18.0787,1.0057 -18.6544,4.6859 -0.3522,2.251 -1.43,5.9345 -2.3953,8.1854 -0.9654,2.251 -5.659,15.1431 -10.4303,28.6491 -25.5096,72.2112 -27.2969,76.7384 -30.2935,76.7384 -6.5894,0 -5.3374,-6.7206 8.3873,-45.0199 z"
       id="path59-0"
       class="doubleStitch"
       style="stroke-width:0.51704" /><path
       style="stroke-width:2.04636"
       d="m 1890.9577,3572.3669 c 6.5613,-8.6407 40.1047,-10.9389 52.1821,-3.5753 12.847,7.8332 7.3697,18.6195 -11.511,22.6688 -25.6307,5.4968 -50.4843,-6.1709 -40.6711,-19.0935 z"
       id="path57-7"
       class="chain" /><path
       style="stroke-width:2.04636"
       d="m 1892.2239,2823.159 c 9.904,-8.9629 46.1063,-8.4913 54.4325,0.7091 10.4049,11.4974 -3.8727,21.1657 -29.6077,20.049 -25.1305,-1.0903 -36.2674,-10.4027 -24.8248,-20.7581 z"
       id="path55-6"
       class="chain" /><path
       d="m 1899.1425,3400.5986 12.7897,-0.6091 1.0231,-57.2717 c 0.9369,-52.4459 1.3249,-57.3294 4.6043,-57.9595 1.9697,-0.3786 3.6536,0.5303 3.7423,2.0197 0.087,1.4895 0.3188,27.5713 0.5115,57.9598 l 0.3506,55.2517 12.8244,1.0232 c 7.0534,0.5628 12.8087,1.7138 12.7897,2.5579 -0.021,0.8442 -0.034,2.4557 -0.034,3.5812 0,1.1255 -5.0103,2.0464 -11.1342,2.0464 -10.7332,0 -13.7963,1.597 -14.7183,7.6735 -0.2683,1.7695 2.9059,2.558 10.2948,2.558 11.1353,0 19.2772,3.8228 16.7728,7.875 -2.826,4.5727 -62.6059,3.1596 -62.6059,-1.4801 0,-4.1397 6.9956,-6.3949 19.8386,-6.3949 14.7591,0 8.2328,-9.0896 -7.0489,-9.8177 -10.9984,-0.524 -12.7897,-1.155 -12.7897,-4.5066 0,-3.3517 1.7913,-3.9828 12.7897,-4.5068 z"
       id="path53-6"
       class="doubleStitch"
       style="stroke-width:0.51704" /><path
       d="m 1895.0496,2978.6107 c 4.7835,-0.6065 13.7618,-0.817 19.9521,-0.468 6.1903,0.3491 16.0896,0.7889 21.9984,0.9773 17.3634,0.5537 15.9282,8.528 -1.5348,8.528 -18.6055,0 -19.0704,9.6733 -0.5115,10.6413 17.8539,0.9312 17.4686,8.324 -0.5116,9.8223 l -12.2782,1.0232 -0.6395,56.2749 c -0.3517,30.9511 -1.4226,57.0694 -2.3797,58.0406 -5.3183,5.3964 -6.1895,-2.7907 -6.1895,-58.1614 v -57.1773 h -13.4438 c -20.2188,0 -19.5124,-8.8588 0.7832,-9.8212 19.4519,-0.9223 18.509,-9.2919 -1.1522,-10.2284 -16.2734,-0.7752 -19.2008,-7.5358 -4.0929,-9.4513 z"
       id="path52-6"
       class="doubleStitch"
       style="stroke-width:0.51704" /><path
       style="stroke-width:2.04636"
       d="m 1884.8179,3142.7991 c 9.0004,-6.4196 55.0196,-7.152 67.2335,-1.0699 30.5507,15.2129 -5.7813,38.1148 -47.8682,30.1735 -26.0612,-4.9173 -34.8198,-18.0805 -19.3653,-29.1036 z"
       id="path49-2"
       class="chain" /><path
       style="stroke-width:2.04636"
       d="m 1855.1257,3177.1028 c 2.0404,-5.7029 6.0403,-11.8628 9.2287,-14.2125 l 5.6274,-4.1472 5.6276,4.1648 c 23.5124,17.4007 12.4032,95.5168 -11.7457,82.5926 -11.1348,-5.9591 -16.382,-47.0324 -8.738,-68.3977 z"
       id="path47-4"
       class="chain" /><path
       d="m 1823.7713,3401.0127 c 16.3189,0 21.6541,-1.1703 21.6541,-4.75 0,-1.2461 4.5596,-14.7301 10.1324,-29.9648 5.5729,-15.2346 14.5514,-40.0148 19.9521,-55.067 9.5593,-26.6423 12.8605,-31.8006 17.4289,-27.2325 2.0738,2.0742 -1.1397,12.7118 -13.7127,45.3918 -1.5155,3.9392 -6.1252,16.8313 -10.2435,28.649 -4.1181,11.8177 -8.8012,24.9586 -10.4065,29.2019 -4.4429,11.7441 -3.8716,13.4456 4.755,14.1596 11.6502,0.9642 10.2797,6.4746 -1.9603,7.8819 -10.8796,1.2508 -11.1961,1.4349 -12.1697,7.0776 -0.6299,3.6516 0.3275,4.0531 8.8814,3.7232 9.6713,-0.3731 15.6787,3.072 12.9778,7.4423 -2.7205,4.4018 -62.4693,2.7398 -62.4693,-1.738 0,-4.9482 3.8405,-6.358 17.3227,-6.358 9.0201,0 11.0241,-0.6697 11.8883,-3.9743 1.5031,-5.7478 0.263,-6.2572 -15.2276,-6.2572 -12.6192,0 -13.9834,-0.3994 -13.9834,-4.0928 0,-3.7249 1.3642,-4.0927 15.1803,-4.0927 z"
       id="path45-3"
       class="doubleStitch"
       style="stroke-width:0.51704" /><path
       d="m 1829.5662,2978.4775 c 30.9174,-2.0326 39.2387,-1.0801 40.0462,4.584 0.615,4.3124 -0.078,4.5865 -11.5739,4.5865 h -12.2281 l 2.3656,5.1 c 2.153,4.6421 8.548,6.7105 16.3936,5.3023 0.9626,-0.1727 2.9799,0.7064 4.4828,1.9537 4.4395,3.6845 1.1058,8.1076 -6.1109,8.1076 -9.0488,0 -9.43,0.8944 -5.0666,11.8826 3.9288,9.8936 13.574,36.498 28.6017,78.8924 7.0249,19.8172 8.0838,24.5965 5.7741,26.0578 -4.9514,3.1325 -6.789,0.8628 -12.7177,-15.708 -7.0503,-19.7046 -16.9495,-47.5091 -27.6252,-77.5916 l -7.9884,-22.51 -17.1526,-1.0232 c -24.4088,-1.456 -26.1533,-8.8439 -2.3164,-9.8098 8.1598,-0.3307 14.836,-1.416 14.836,-2.4118 0,-5.1413 -6.9837,-8.242 -18.5635,-8.242 -24.0489,0 -16.8335,-7.4825 8.8433,-9.1705 z"
       id="path44-8"
       class="doubleStitch"
       style="stroke-width:0.51704" /><path
       d="m 1761.8353,3442.7712 c 3.6097,-2.2312 7.3275,4.3623 13.8951,24.6426 6.8031,21.0079 27.6124,82.1585 29.8054,87.5872 1.2069,2.9877 4.1343,3.5811 17.6628,3.5811 12.9811,0 16.467,0.6537 17.4735,3.2762 1.8914,4.9292 -3.0533,6.8897 -17.4639,6.9243 -11.0142,0.028 -12.8182,0.5278 -11.7666,3.2684 0.6831,1.7803 1.2422,4.0824 1.2422,5.1157 0,1.0335 6.51,1.879 14.4667,1.879 13.8322,0 14.4382,0.2027 13.8129,4.6043 -0.875,6.1623 -59.4954,8.4635 -61.8118,2.4268 -2.1217,-5.529 0.524,-7.0311 12.3851,-7.0311 9.5119,0 11.1516,-0.5248 10.111,-3.2366 -0.6833,-1.7803 -1.242,-4.0826 -1.242,-5.1159 0,-1.0337 -4.5276,-1.8791 -10.0615,-1.8791 -6.2087,0 -10.4028,-0.9795 -10.9535,-2.5581 -1.8026,-5.1678 1.1221,-7.6739 8.9557,-7.6739 8.6253,0 8.9648,-0.3211 5.9739,-5.6551 -1.096,-1.9545 -3.3374,-8.1577 -4.981,-13.7852 -1.6439,-5.6276 -9.035,-27.9029 -16.4246,-49.501 -14.1071,-41.2297 -14.8844,-44.5182 -11.0794,-46.8696 z"
       id="path42-6"
       class="doubleStitch"
       style="stroke-width:0.51704" /><path
       d="m 1766.674,2936.8094 c 3.8044,-11.6416 9.1669,-27.2962 11.9162,-34.7882 2.7495,-7.4919 7.0796,-20.528 9.6223,-28.9693 2.5426,-8.4412 5.4055,-16.2225 6.3618,-17.2917 3.3836,-3.7835 1.6443,-5.2182 -6.3261,-5.2182 -8.6841,0 -11.0886,-1.8402 -9.1171,-6.9776 0.9061,-2.3612 3.9965,-3.2542 11.2616,-3.2542 5.5071,0 10.013,-0.8456 10.013,-1.879 0,-1.0335 0.5587,-3.3356 1.242,-5.1159 1.0398,-2.7099 -0.5905,-3.2369 -10.013,-3.2369 -11.3137,0 -15.1631,-2.5702 -11.8583,-7.9178 2.9775,-4.8176 60.5333,-2.1535 60.5333,2.8019 0,3.6073 -1.5714,4.1664 -13.2484,4.7138 -12.6882,0.5949 -16.3231,2.3855 -16.3926,8.0759 -0.022,1.7736 3.8905,2.5676 12.7584,2.5893 25.9174,0.063 25.2487,9.7054 -0.7372,10.6277 l -16.7896,0.5959 -3.9648,11.255 c -2.1806,6.1903 -4.7252,14.0176 -5.6545,17.3941 -9.482,34.4532 -28.4766,83.9601 -32.4414,84.5546 -5.8772,0.8812 -5.5561,-2.2843 2.8344,-27.9594 z"
       id="path41-0"
       class="doubleStitch"
       style="stroke-width:0.51704" /><path
       d="m 1705.5202,3560.0173 c 0.7891,-0.7893 6.8066,-1.4352 13.372,-1.4352 h 11.9372 v -57.1771 c 0,-58.455 0.9139,-65.2102 7.6033,-56.1966 2.35,3.1662 2.7947,14.0246 2.3813,58.1219 l -0.5086,54.2287 12.7851,0.6126 c 19.4224,0.9308 18.2649,9.2987 -1.415,10.2319 -19.3253,0.9163 -18.5319,9.2886 0.969,10.2235 12.9267,0.6199 17.5972,3.9174 12.0587,8.514 -5.907,4.9022 -59.3562,1.7983 -60.1073,-3.491 -0.6211,-4.3738 0.021,-4.6043 12.7897,-4.6043 20.3585,0 20.9715,-9.6771 0.6745,-10.6455 -12.2857,-0.5863 -17.111,-3.812 -12.5399,-8.3829 z"
       id="path36-8"
       class="doubleStitch"
       style="stroke-width:0.51704" /><path
       d="m 1704.6847,2822.2535 c 3.5857,-3.5856 57.6304,-3.3164 60.6334,0.302 3.8668,4.6593 -1.6819,7.5229 -14.5769,7.5229 -18.3854,0 -17.0496,8.6797 1.575,10.2318 10.5727,0.881 12.2781,1.5916 12.2781,5.1159 0,3.5243 -1.7054,4.2348 -12.2781,5.1159 l -12.2783,1.0231 0.7696,47.4078 c 0.8898,54.84 -0.1391,66.1652 -6.0108,66.1652 -3.8311,0 -3.9673,-1.9669 -3.9673,-57.2004 v -57.2005 l -12.7897,-0.6092 c -11.2224,-0.5346 -12.7897,-1.1108 -12.7897,-4.7019 0,-3.5912 1.5673,-4.1674 12.7897,-4.702 19.243,-0.9167 19.9397,-10.6457 0.762,-10.6457 -12.7836,0 -18.6759,-3.266 -14.117,-7.8249 z"
       id="path35-1"
       class="doubleStitch"
       style="stroke-width:0.51704" /><path
       d="m 1698.0878,3175.9131 c 3.7688,0 5.8397,8.3015 4.2642,17.0944 -0.8829,4.9268 2.552,9.5083 7.1286,9.5083 4.7624,0 4.9778,-0.5758 4.9778,-13.3014 0,-11.937 0.4199,-13.3013 4.0929,-13.3013 4.3205,0 4.724,1.1405 4.147,11.7198 -0.8614,15.8003 -4.5246,14.8829 59.4279,14.8829 49.9655,0 57.1602,0.3943 57.1602,3.1337 0,4.816 -1.4317,4.947 -60.3676,5.5292 -47.3601,0.4677 -55.2911,0.9842 -55.5274,3.6152 -0.1514,1.6883 -0.3815,7.4437 -0.5115,12.7897 -0.4035,16.6195 -8.0237,13.9722 -8.8353,-3.0695 -1.0654,-22.3661 -11.7631,-18.667 -11.8364,4.0928 -0.025,7.3234 -0.6744,8.6969 -4.1204,8.6969 -3.911,0 -4.0929,-1.3642 -4.0929,-30.6953 0,-29.3311 0.1822,-30.6954 4.0929,-30.6954 z"
       id="path34-4"
       class="doubleStitch"
       style="stroke-width:0.51704" /><path
       d="m 1698.0878,3094.0587 c 2.2508,0 4.1562,1.1511 4.2342,2.5579 0.078,1.4069 0.3081,7.5533 0.5115,13.6586 0.3416,10.2484 0.802,11.2166 5.9975,12.6128 l 5.6274,1.5121 v -15.1707 c 0,-13.8064 0.3681,-15.1707 4.0929,-15.1707 3.6686,0 4.0926,1.3643 4.0926,13.1682 0,20.74 0.7341,21.6519 23.8086,29.5762 11.1033,3.8132 25.7133,9.0279 32.4663,11.5881 6.7531,2.5604 23.1878,8.5766 36.5216,13.3693 23.2185,8.3458 29.5723,12.6598 23.8525,16.1949 -2.6922,1.6638 -5.4828,0.8142 -47.0727,-14.3314 -26.9542,-9.8159 -63.4858,-22.5123 -66.5067,-23.1144 -1.8821,-0.375 -2.2214,0.9766 -2.852,11.3588 -0.59,9.7101 -8.4031,3.6544 -8.4031,-6.5128 0,-9.7566 -5.3146,-15.969 -9.8131,-11.4706 -1.3135,1.3136 -1.4498,2.2745 -2.115,14.9139 -1.3689,26.0142 -8.5354,5.8264 -8.5354,-24.0447 0,-29.3312 0.1822,-30.6955 4.0929,-30.6955 z"
       id="path33-0"
       class="doubleStitch"
       style="stroke-width:0.51704" /><path
       d="m 1693.546,3282.3634 c 0.3159,-15.1724 1.467,-28.4789 2.5579,-29.5699 3.5122,-3.5122 6.7001,2.2847 6.9044,12.5549 0.1285,6.5018 1.0585,9.744 2.7532,9.6086 1.4069,-0.112 3.9392,-0.3427 5.6274,-0.5117 2.2685,-0.2268 3.0695,-2.9201 3.0695,-10.3198 0,-6.7024 0.9489,-10.377 2.8695,-11.114 4.0285,-1.5459 5.316,0.3495 5.316,7.8256 0,9.0952 1.1377,9.5129 13.0131,4.7796 5.786,-2.3063 17.4265,-6.5161 25.8678,-9.3551 8.4413,-2.8389 17.1894,-5.9389 19.4404,-6.8885 2.251,-0.9497 7.7762,-3.0249 12.2781,-4.6118 4.502,-1.5868 16.3793,-5.8034 26.394,-9.3702 17.9743,-6.4017 23.7118,-6.2934 21.1434,0.3996 -0.6025,1.5701 -13.3865,7.2498 -28.4092,12.6216 -15.0225,5.3719 -33.7596,12.0883 -41.6381,14.9253 -7.8785,2.837 -19.3892,6.9449 -25.5795,9.1283 -22.2677,7.8551 -21.4119,6.8555 -22.0813,25.7887 -0.8688,24.5791 -8.6142,25.8947 -8.6142,1.4633 0,-15.6423 -1.2529,-17.7294 -8.0584,-13.4231 -1.904,1.2047 -3.1106,6.0694 -3.418,13.7813 -0.2618,6.5561 -0.549,12.6105 -0.6387,13.4547 -0.2756,2.5951 -7.8644,1.6966 -8.641,-1.0232 -0.4019,-1.4068 -0.4721,-14.9716 -0.1554,-30.1442 z"
       id="path32-4"
       class="doubleStitch"
       style="stroke-width:0.51704" /><path
       d="m 1636.0146,3559.9465 c 0.7505,-0.7505 8.4482,-1.3644 17.1061,-1.3644 h 15.7421 l 6.3195,-19.9519 c 3.476,-10.9737 9.2161,-29.6211 12.7556,-41.4388 3.5398,-11.8178 7.6974,-24.7097 9.2391,-28.6491 1.5419,-3.9392 3.7653,-10.9684 4.9412,-15.6208 2.5949,-10.2668 6.6266,-14.3771 10.0531,-10.2485 1.8111,2.182 0.6586,8.1604 -5.0345,26.1162 -4.0605,12.8075 -9.6566,31.1136 -12.4355,40.6805 -2.7787,9.5664 -7.2975,23.9945 -10.0416,32.0622 -6.2369,18.336 -6.4828,17.0502 3.2604,17.0502 5.6764,0 8.6418,1.022 9.5067,3.2762 1.7249,4.4953 -2.8185,6.8871 -13.1521,6.9243 -4.7833,0.021 -8.6969,0.8769 -8.6969,1.9106 0,1.0333 -0.5593,3.3356 -1.2422,5.1159 -1.0423,2.7157 0.6154,3.2366 10.296,3.2366 11.9039,0 17.5766,4.2608 11.1962,8.4093 -4.2343,2.753 -56.6081,1.793 -58.9939,-1.0814 -3.7343,-4.4998 1.0795,-7.1128 14.2406,-7.7298 20.2666,-0.9503 21.6412,-9.8297 1.5215,-9.8297 -14.1759,0 -21.5209,-3.928 -16.5814,-8.8676 z"
       id="path31-9"
       class="doubleStitch"
       style="stroke-width:0.51704" /><path
       d="m 1637.1556,2820.8031 c 8.9399,-3.4305 59.9088,0.1083 59.9088,4.1594 0,3.5545 -1.5705,4.1741 -11.9444,4.7117 -9.7314,0.5043 -11.7217,1.1988 -10.7433,3.7485 0.6605,1.7212 1.2011,3.975 1.2011,5.0085 0,1.0334 3.6081,1.879 8.018,1.879 9.8259,0 14.492,1.6471 14.492,5.1159 0,3.2396 -4.5646,5.1159 -12.4458,5.1159 -6.9555,0 -6.7901,-0.5738 -3.0741,10.6718 4.7253,14.3001 23.0449,73.1137 27.5766,88.5328 4.1378,14.0799 3.4808,19.1265 -2.2065,16.9441 -3.0262,-1.1612 -4.2968,-4.5066 -14.9674,-39.4103 -4.1292,-13.5059 -8.8704,-28.7002 -10.5364,-33.7649 -1.6658,-5.0647 -4.7281,-15.1942 -6.8052,-22.51 -6.2307,-21.9466 -4.575,-20.4635 -22.8444,-20.4635 -12.981,0 -16.4671,-0.6536 -17.4733,-3.2761 -1.8893,-4.923 3.0492,-6.8897 17.3871,-6.9244 20.6422,-0.05 18.3673,-8.7577 -2.6814,-10.2631 -14.0388,-1.0041 -21.1156,-6.1078 -12.8614,-9.2753 z"
       id="path30-1"
       class="doubleStitch"
       style="stroke-width:0.51704" /><path
       d="m 1537.8704,3427.2655 c 4.44,-3.6853 6.7403,0.3912 6.7403,11.9443 0,9.512 0.525,11.1519 3.2368,10.1112 1.7804,-0.6832 4.0825,-1.2422 5.1159,-1.2422 1.0336,0 1.8933,-3.9137 1.9105,-8.6971 0.037,-10.3337 2.4292,-14.877 6.9244,-13.1522 2.2387,0.8593 3.276,3.8167 3.276,9.3421 v 8.0846 l 7.6738,-2.0059 c 4.2207,-1.1031 21.9473,-6.4957 39.3924,-11.9832 72.3415,-22.7558 69.5763,-22.1717 69.5763,-14.6988 0,2.6573 -5.4537,5.1419 -23.0216,10.4878 -12.6618,3.853 -35.287,10.9616 -50.2778,15.7966 -14.991,4.8352 -30.8758,9.7659 -35.2997,10.957 l -8.0434,2.166 v 16.1712 c 0,16.4738 -1.2018,19.44 -6.9775,17.2236 -2.5461,-0.9769 -3.2541,-4.3668 -3.2541,-15.5732 0,-12.2214 -0.4754,-14.1421 -3.2371,-13.0823 -1.7803,0.6831 -4.0824,1.242 -5.1158,1.242 -1.0334,0 -1.8791,5.9314 -1.8791,13.1805 0,13.1577 -2.3904,17.9894 -6.7453,13.6345 -3.2945,-3.2945 -3.29,-57.1717 0,-59.9065 z"
       id="path25-3"
       class="doubleStitch"
       style="stroke-width:0.51704" /><path
       d="m 1538.0465,3357.5465 c 4.2406,-3.526 6.289,0.5322 6.9632,13.7939 0.9758,19.2072 9.3378,19.7304 10.2431,0.6406 0.9613,-20.2716 9.8211,-21.0069 9.8211,-0.8148 v 13.4117 l 57.8096,0.5436 c 85.3983,0.8028 85.7555,6.1834 0.5116,7.7058 l -57.298,1.0231 -1.0232,12.2783 c -1.5613,18.7346 -8.9252,18.2542 -9.8211,-0.6408 -0.8993,-18.9628 -9.0476,-18.4861 -10.6425,0.6227 -1.4369,17.2164 -8.007,19.317 -8.5261,2.726 -1.0962,-35.0479 -0.5549,-49.1972 1.9623,-51.2901 z"
       id="path24-9"
       class="doubleStitch"
       style="stroke-width:0.51704" /><path
       d="m 1535.9312,3291.021 c 1.5927,-14.0669 8.6791,-8.6367 8.6791,6.6505 0,7.3159 0.8457,13.3014 1.8791,13.3014 1.0334,0 3.3355,0.5589 5.1159,1.2419 2.7644,1.0609 3.237,-0.8803 3.237,-13.3013 0,-24.2849 9.7888,-22.3243 10.6603,2.1355 l 0.5945,16.6785 32.7416,11.1024 c 18.008,6.1063 36.8857,12.3696 41.9504,13.9186 34.4042,10.5224 42.8718,14.5814 40.0253,19.187 -2.1736,3.5171 -4.7931,2.9371 -40.3314,-8.9302 -41.0774,-13.7167 -46.6983,-15.6251 -51.8761,-17.6137 -20.3573,-7.8171 -23.152,-7.622 -23.9212,1.6724 -1.0966,13.2493 -8.6407,10.796 -9.439,-3.0695 -0.3401,-5.9089 -1.4159,-10.7435 -2.3905,-10.7435 -0.9748,0 -3.2287,-0.5591 -5.0089,-1.2421 -2.7159,-1.0422 -3.237,0.6154 -3.237,10.2959 0,11.7157 -4.3078,17.6838 -8.2085,11.3724 -1.6242,-2.6281 -1.9542,-39.5538 -0.4706,-52.6562 z"
       id="path23-8"
       class="doubleStitch"
       style="stroke-width:0.51704" /><path
       d="m 1537.4825,3064.0902 c 5.1935,-1.993 7.1278,1.4522 7.1278,12.6952 0,6.1239 0.8457,11.1343 1.8791,11.1343 6.1148,0 8.3545,-2.9282 8.3841,-10.9624 0.037,-10.1284 2.4568,-14.6476 6.9243,-12.9333 2.2445,0.8614 3.2761,3.8219 3.2761,9.4025 v 8.1452 l 7.1528,-2.9886 c 3.9344,-1.6439 11.9919,-4.2906 17.9057,-5.8815 5.914,-1.5911 26.7185,-8.4868 46.2322,-15.3241 19.5136,-6.8373 37.1859,-12.4315 39.2717,-12.4315 8.5586,0 6.4402,8.6311 -2.6796,10.9172 -10.5919,2.6552 -27.3885,8.0875 -65.9325,21.3239 l -40.9271,14.0548 -0.6068,16.2374 c -0.9599,25.6866 -10.648,27.0128 -10.648,1.4577 0,-11.2597 -0.4904,-13.0817 -3.237,-12.0277 -1.7804,0.6832 -4.0825,1.2421 -5.1159,1.2421 -1.0334,0 -1.8791,5.9313 -1.8791,13.1806 0,12.9909 -2.3874,17.9923 -6.5851,13.7945 -3.523,-3.5229 -4.0225,-59.7011 -0.5427,-61.0363 z"
       id="path22-5"
       class="doubleStitch"
       style="stroke-width:0.51704" /><path
       d="m 1535.8951,2992.2523 c 2.8932,-8.4988 8.5383,-2.1716 9.1292,10.2318 0.5346,11.2225 1.1109,12.7898 4.702,12.7898 3.5912,0 4.1675,-1.5673 4.7019,-12.7898 0.5704,-11.9738 0.923,-12.7897 5.5299,-12.7897 4.6064,0 4.9592,0.8159 5.5298,12.7897 l 0.6092,12.7898 57.298,1.0231 c 49.1126,0.8771 57.298,1.4618 57.298,4.0928 0,2.631 -8.1854,3.2157 -57.298,4.0927 l -57.298,1.0232 -1.0232,12.2781 c -0.8812,10.5728 -1.5918,12.2782 -5.1158,12.2782 -3.5244,0 -4.235,-1.7054 -5.1158,-12.2782 -1.6343,-19.6097 -10.232,-19.4699 -10.232,0.1663 0,12.7462 -0.2311,13.3868 -4.6043,12.7657 -4.3951,-0.6242 -7.7169,-47.8693 -4.1109,-58.4635 z"
       id="path21-8"
       class="doubleStitch"
       style="stroke-width:0.51704" /><path
       d="m 1536.2949,2931.3732 c 1.7483,-15.5135 7.1056,-14.1225 7.8812,2.0463 0.5507,11.4838 3.5819,17.3941 8.9212,17.3941 0.8611,0 1.8362,-6.6763 2.1669,-14.8361 0.9627,-23.7587 8.5262,-22.199 9.3788,1.9341 0.4857,13.7427 1.2246,16.9543 4.0928,17.7898 1.9251,0.5607 9.0255,2.5099 15.7785,4.3315 6.753,1.8215 14.1198,4.136 16.3708,5.1433 2.251,1.0072 16.9847,5.6315 32.7418,10.2761 37.3006,10.9949 46.9226,14.825 47.7279,18.9986 1.0939,5.6696 -53.2443,-7.1371 -80.4697,-18.9654 -2.251,-0.978 -10.0297,-3.3445 -17.2863,-5.2588 -7.2565,-1.9143 -14.3931,-3.9409 -15.8593,-4.5036 -1.9196,-0.7366 -2.6656,1.2959 -2.6656,7.2607 0,8.8927 -1.8127,11.318 -6.9775,9.336 -2.3612,-0.906 -3.2541,-3.9965 -3.2541,-11.2616 0,-5.5071 -0.8457,-10.0128 -1.8791,-10.0128 -1.0336,0 -3.3357,-0.559 -5.1159,-1.2422 -2.712,-1.0406 -3.237,0.5992 -3.237,10.1111 0,11.655 -2.3019,15.6284 -6.8616,11.8441 -2.7632,-2.2932 -3.601,-31.3321 -1.4538,-50.3852 z"
       id="path20-9"
       class="doubleStitch"
       style="stroke-width:0.51704" /><path
       style="stroke-width:2.04636"
       d="m 1532.2734,3190.8005 c 6.7927,-28.5997 27.069,-19.4209 27.1855,12.3066 0.086,23.4491 -7.7384,36.0996 -18.7001,30.2331 -6.753,-3.614 -11.7641,-28.7358 -8.4854,-42.5397 z"
       id="path18-4"
       class="chain" /><path
       style="stroke-width:2.04636"
       d="m 1893.3136,3276.6664 c -5.6932,-2.0675 -11.8339,-6.0967 -14.1685,-9.2962 l -4.1203,-5.6472 4.1916,-5.6077 c 17.5126,-23.4292 95.5748,-11.9477 82.5357,12.1394 -6.0121,11.1062 -47.11,16.1576 -68.4385,8.4117 z"
       id="path47-5-4"
       class="chain" /><path
       style="stroke-width:2.04636"
       d="m 1954.5896,3180.7913 c 2.0404,-5.703 6.0403,-11.8628 9.2287,-14.2126 l 5.6274,-4.1472 5.6276,4.1648 c 23.5124,17.4007 12.4032,95.5168 -11.7458,82.5926 -11.1347,-5.9591 -16.3819,-47.0324 -8.7379,-68.3976 z"
       id="path47-8-3"
       class="chain" /><path
       style="stroke-width:2.04636"
       d="m 2058.5708,2982.6489 c 8.7381,0.7238 16.9113,5.9997 27.9291,18.0288 23.1229,25.2453 3.1289,41.0877 -22.2558,17.6343 -19.7067,-18.2088 -22.7087,-37.0737 -5.6733,-35.6631 z"
       id="path69-5-8-1-97"
       class="chain" /><path
       style="stroke-width:2.04636"
       d="m 2108.2699,3028.0306 c 8.7381,0.7237 16.9114,5.9996 27.9291,18.0288 23.123,25.2453 3.1289,41.0877 -22.2557,17.6342 -19.7068,-18.2087 -22.7087,-37.0737 -5.6734,-35.663 z"
       id="path69-6-8-9-9"
       class="chain" /><path
       style="stroke-width:2.04636"
       d="m 1707.4841,3332.1942 c 8.7381,0.7238 16.9114,5.9997 27.9291,18.0288 23.1229,25.2453 3.1289,41.0877 -22.2557,17.6343 -19.7068,-18.2088 -22.7087,-37.0737 -5.6734,-35.6631 z"
       id="path69-5-8-1-9-7"
       class="chain" /><path
       style="stroke-width:2.04636"
       d="m 1757.1833,3377.5759 c 8.738,0.7237 16.9113,5.9997 27.9291,18.0287 23.1229,25.2454 3.1288,41.0878 -22.2558,17.6343 -19.7067,-18.2087 -22.7087,-37.0737 -5.6733,-35.663 z"
       id="path69-6-8-9-2-9"
       class="chain" /><path
       style="stroke-width:2.04636"
       d="m 1692.5227,3062.1397 c 1.7344,-8.5947 7.9244,-16.0995 21.1523,-25.6446 27.7615,-20.0324 41.173,1.6672 14.9284,24.1543 -20.3755,17.4571 -39.4615,18.2463 -36.0807,1.4903 z"
       id="path69-5-8-8-5"
       class="chain" /><path
       style="stroke-width:2.04636"
       d="m 1743.3726,3018.0513 c 1.7343,-8.5948 7.9243,-16.0995 21.1524,-25.6447 27.7614,-20.0324 41.1729,1.6673 14.9282,24.1543 -20.3755,17.4572 -39.4615,18.2464 -36.0806,1.4904 z"
       id="path69-6-8-4-7"
       class="chain" /><path
       style="stroke-width:2.04636"
       d="m 1544.0862,2901.3563 c -5.6132,-6.7358 -7.5856,-16.2619 -6.7401,-32.5521 1.7748,-34.1885 27.0907,-31.0499 28.1795,3.4937 0.8444,26.8179 -10.4959,42.1898 -21.4394,29.0584 z"
       id="path69-5-8-8-0-5"
       class="chain" /><path
       style="stroke-width:2.04636"
       d="m 1567.1078,2828.909 c 6.7358,-5.6132 16.2619,-7.5856 32.5521,-6.7401 34.1885,1.7748 31.0499,27.0907 -3.4937,28.1795 -26.8179,0.8444 -42.1898,-10.4959 -29.0584,-21.4394 z"
       id="path69-5-8-8-0-5-1"
       class="chain" /><path
       style="stroke-width:1.70919"
       d="m 1983.1443,3271.2983 c 6.6737,3.0155 11.6287,9.455 16.932,22.0051 11.1299,26.3389 -9.0386,33.2093 -22.4499,7.6475 -10.4112,-19.8453 -7.4931,-35.5311 5.5179,-29.6526 z"
       id="path69-9-0"
       class="chain" /><path
       style="stroke-width:1.70919"
       d="m 2010.1904,3322.0564 c 6.6737,3.0155 11.6288,9.4551 16.9321,22.0052 11.1299,26.3389 -9.0387,33.2092 -22.4499,7.6474 -10.4112,-19.8452 -7.4931,-35.531 5.5178,-29.6526 z"
       id="path69-9-9-5"
       class="chain" /><path
       style="stroke-width:1.70919"
       d="m 2036.437,3370.4825 c 6.6737,3.0154 11.6288,9.455 16.932,22.0051 11.1299,26.3388 -9.0386,33.2093 -22.4499,7.6474 -10.4112,-19.8452 -7.4931,-35.5311 5.5179,-29.6525 z"
       id="path69-9-5-9"
       class="chain" /><path
       style="fill:#000000;stroke-width:1.02785"
       d="m 2019.3907,3418.4324 c 2.8579,-3.709 6.2229,-4.5285 11.4988,-2.8005 11.0724,3.6266 7.1655,22.1949 -4.3488,20.6685 -8.9391,-1.1856 -12.7216,-10.637 -7.15,-17.868 z"
       id="path69-4-10"
       class="slipSt" /><path
       style="fill:#000000;stroke-width:1.02785"
       d="m 2169.1189,3561.1617 c 2.3161,-4.0694 5.535,-5.3477 10.9995,-4.3679 11.4683,2.0564 10.1737,20.987 -1.4411,21.0719 -9.0171,0.065 -14.0735,-8.7704 -9.5584,-16.704 z"
       id="path69-4-1-2"
       class="slipSt" /><path
       style="fill:#000000;stroke-width:1.10975"
       d="m 2112.5312,3387.512 c 2.5006,-4.3936 5.976,-5.7737 11.8759,-4.7158 12.3821,2.2202 10.9844,22.6591 -1.5559,22.7508 -9.7356,0.071 -15.1949,-9.4692 -10.32,-18.035 z"
       id="path69-4-1-1-0"
       class="slipSt" /><path
       style="stroke-width:1.90145"
       d="m 2061.6422,3422.3212 c -0.2513,-8.1432 3.7592,-16.244 13.705,-27.6817 20.8732,-24.0041 37.6032,-7.2127 18.6223,18.6908 -14.7364,20.1097 -31.8367,24.8665 -32.3273,8.9909 z"
       id="path69-9-9-7-0"
       class="chain" /><path
       style="stroke-width:1.90145"
       d="m 2097.1903,3372.4092 c -0.2514,-8.1432 3.7591,-16.2441 13.7049,-27.6817 20.8732,-24.0041 37.6032,-7.2128 18.6223,18.6908 -14.7364,20.1097 -31.8367,24.8666 -32.3272,8.9909 z"
       id="path69-9-5-0-4"
       class="chain" /><path
       style="stroke-width:1.70919"
       d="m 2137.1757,3411.4818 c 6.6354,3.0989 11.5095,9.5999 16.6552,22.2154 10.7992,26.4762 -9.4538,33.0936 -22.544,7.3659 -10.1618,-19.9741 -7.0475,-35.6221 5.8888,-29.5813 z"
       id="path69-9-94-6"
       class="chain" /><path
       style="stroke-width:1.70919"
       d="m 2163.5842,3462.5747 c 6.6354,3.0988 11.5094,9.5999 16.6551,22.2154 10.7992,26.4762 -9.4537,33.0935 -22.5439,7.3658 -10.1619,-19.974 -7.0475,-35.6221 5.8888,-29.5812 z"
       id="path69-9-9-9-1"
       class="chain" /><path
       style="stroke-width:1.70919"
       d="m 2189.2222,3511.3256 c 6.6355,3.0988 11.5095,9.5999 16.6552,22.2154 10.7992,26.4761 -9.4538,33.0935 -22.5439,7.3657 -10.1619,-19.9741 -7.0476,-35.6221 5.8887,-29.5811 z"
       id="path69-9-5-5-3"
       class="chain" /><path
       d="m 2398.5005,3195.7571 233.709,-2.6796 v -10.3664 c 0,-21.5531 9.632,-24.5043 10.6504,-3.2633 0.8927,18.6152 8.2686,18.8618 9.8132,0.3283 0.9045,-10.8536 1.5638,-12.3549 5.6829,-12.9394 l 4.66,-0.6613 -0.5673,30.3335 c -0.6466,34.5741 -7.365,46.983 -9.7756,18.0555 -1.5614,-18.735 -8.9252,-18.2546 -9.8213,0.6404 -0.9244,19.4957 -9.2932,18.5011 -10.2302,-1.2157 l -0.6108,-12.8532 -228.0559,2.9452 c -27.8014,0.073 -53.5407,0.1003 -57.1986,0.064 -5.2645,-0.053 -6.6507,-0.9189 -6.6507,-4.1586 0,-3.9954 19.485,-2.9977 54.0761,-4.0926 z"
       id="path81-8-6"
       class="doubleStitch"
       style="stroke-width:0.51704" /><path
       d="m 2395.9682,3222.3824 225.9737,59.6903 2.7622,-9.9917 c 5.743,-20.7738 15.8132,-21.0517 11.135,-0.3075 -4.0997,18.1803 2.9437,20.3833 9.3708,2.9314 3.7639,-10.2203 4.7995,-11.4915 8.9254,-10.9573 l 4.6676,0.6041 -8.6292,29.0858 c -9.8359,33.1519 -19.6177,43.322 -14.2332,14.798 3.4871,-18.4737 -3.7384,-19.9728 -9.6368,-1.9997 -6.0857,18.5445 -13.887,15.3559 -9.5365,-3.8976 l 2.836,-12.5513 -220.5958,-57.9282 c -26.8157,-7.3374 -51.6318,-14.1694 -55.1478,-15.1792 -5.0599,-1.4538 -6.1654,-2.6578 -5.302,-5.7803 1.0646,-3.851 19.5792,2.3028 53.2115,10.4642 z"
       id="path81-8-6-2"
       class="doubleStitch"
       style="stroke-width:0.51704" /><path
       d="m 2387.9307,3246.9747 201.1124,119.0834 5.3837,-8.8589 c 11.1933,-18.4186 20.9571,-15.9382 10.7963,2.7424 -8.9046,16.3716 -2.7296,20.4128 8.2157,5.3769 6.4095,-8.8054 7.7527,-9.746 11.5763,-8.1063 l 4.3257,1.8549 -16.2381,25.6277 c -18.5083,29.2101 -30.6939,36.3255 -17.7307,10.3529 8.3954,-16.8212 1.8529,-20.2351 -8.7256,-4.5534 -10.9148,16.1805 -17.55,10.9842 -8.1111,-6.3517 l 6.1532,-11.3013 -196.4196,-115.9205 c -23.7962,-14.3758 -45.8064,-27.7199 -48.9134,-29.6506 -4.4715,-2.7794 -5.2062,-4.2393 -3.5238,-7.0078 2.075,-3.4143 18.2081,7.5577 48.3372,24.5863 z"
       id="path81-8-6-2-7"
       class="doubleStitch"
       style="stroke-width:0.51704" /><path
       d="m 2371.4876,3269.8964 160.0034,170.3699 7.6372,-7.0093 c 15.879,-14.5739 24.5664,-9.4731 9.606,5.6397 -13.1109,13.245 -8.3052,18.846 6.3935,7.4519 8.6079,-6.6727 10.1598,-7.202 13.3757,-4.5624 l 3.6382,2.9858 -22.7315,20.0931 c -25.9093,22.9017 -39.594,26.3429 -19.9121,5.0067 12.747,-13.8184 7.4137,-18.919 -7.1127,-6.8027 -14.9884,12.5014 -19.9144,5.6632 -6.022,-8.3591 l 9.0564,-9.141 -156.3764,-166.0257 c -18.8526,-20.4328 -36.2772,-39.3775 -38.7237,-42.097 -3.5209,-3.9144 -3.8202,-5.5213 -1.4333,-7.7118 2.9436,-2.7016 15.3837,12.3286 39.5802,37.0725 z"
       id="path81-8-6-2-7-7"
       class="doubleStitch"
       style="stroke-width:0.51704" /><path
       d="m 2347.722,3285.0321 99.7456,211.3713 9.425,-4.3162 c 19.596,-8.9741 26.2896,-1.4452 7.4015,8.3246 -16.5532,8.5625 -13.7063,15.3712 3.7873,9.0588 10.2446,-3.6967 11.8842,-3.7223 14.1307,-0.2206 l 2.5417,3.9614 -27.8153,12.1141 c -31.704,13.8077 -45.7834,12.8662 -20.4865,-1.37 16.3839,-9.2202 12.8809,-15.7155 -4.6713,-8.6629 -18.1103,7.277 -20.6905,-0.7462 -3.1544,-9.8074 l 11.4318,-5.907 -97.6331,-206.1212 c -11.6422,-25.2463 -22.3841,-48.6371 -23.874,-51.9781 -2.144,-4.8085 -1.9338,-6.4293 1.0117,-7.7782 3.6325,-1.6636 10.8384,16.4678 26.2365,47.4617 z"
       id="path81-8-6-2-7-7-6"
       class="doubleStitch"
       style="stroke-width:0.51704" /><path
       d="m 2321.0824,3291.7055 26.9875,232.1611 10.3097,-1.0789 c 21.4363,-2.2429 25.3738,7.0297 4.3543,10.2531 -18.4213,2.825 -17.899,10.1865 0.6946,9.794 10.8888,-0.23 12.4507,0.2696 13.4607,4.3056 l 1.1427,4.5657 -30.2278,2.5928 c -34.4538,2.9548 -47.4946,-2.4356 -18.9751,-7.8434 18.471,-3.5027 17.2268,-10.7767 -1.6588,-9.7014 -19.4859,1.1095 -19.3678,-7.3175 0.1444,-10.3013 l 12.7198,-1.945 -26.6631,-226.5111 c -2.9659,-27.6428 -5.6718,-53.2394 -6.0162,-56.8813 -0.4953,-5.2415 0.2217,-6.7103 3.4435,-7.0476 3.9736,-0.4158 5.009,19.0674 9.6978,53.3564 z"
       id="path81-8-6-2-7-7-6-0"
       class="doubleStitch"
       style="stroke-width:0.51704" /><path
       d="m 2401.268,3177.4717 225.9737,-59.6903 2.7622,9.9917 c 5.743,20.7738 15.8132,21.0517 11.135,0.3075 -4.0997,-18.1803 2.9437,-20.3833 9.3708,-2.9314 3.7639,10.2203 4.7995,11.4915 8.9254,10.9573 l 4.6676,-0.6041 -8.6292,-29.0858 c -9.8359,-33.1519 -19.6177,-43.322 -14.2332,-14.798 3.4871,18.4737 -3.7384,19.9728 -9.6368,1.9997 -6.0857,-18.5445 -13.887,-15.3559 -9.5365,3.8976 l 2.836,12.5513 -220.5958,57.9282 c -26.8157,7.3374 -51.6318,14.1694 -55.1478,15.1792 -5.0599,1.4538 -6.1654,2.6578 -5.302,5.7803 1.0646,3.851 19.5792,-2.3028 53.2115,-10.4642 z"
       id="path81-8-6-2-6"
       class="doubleStitch"
       style="stroke-width:0.51704" /><path
       d="m 2393.2305,3152.8794 201.1124,-119.0834 5.3837,8.8589 c 11.1933,18.4186 20.9571,15.9382 10.7963,-2.7424 -8.9046,-16.3716 -2.7296,-20.4128 8.2157,-5.3769 6.4095,8.8054 7.7527,9.746 11.5763,8.1063 l 4.3257,-1.8549 -16.2381,-25.6277 c -18.5083,-29.2101 -30.6939,-36.3255 -17.7307,-10.3529 8.3954,16.8212 1.8529,20.2351 -8.7256,4.5534 -10.9148,-16.1805 -17.55,-10.9842 -8.1111,6.3517 l 6.1532,11.3013 -196.4196,115.9205 c -23.7962,14.3758 -45.8064,27.7199 -48.9134,29.6506 -4.4715,2.7794 -5.2062,4.2393 -3.5238,7.0078 2.075,3.4143 18.2081,-7.5577 48.3372,-24.5863 z"
       id="path81-8-6-2-7-9"
       class="doubleStitch"
       style="stroke-width:0.51704" /><path
       d="m 2376.7874,3129.9577 160.0034,-170.3699 7.6372,7.0093 c 15.879,14.5739 24.5664,9.4731 9.606,-5.6397 -13.1109,-13.245 -8.3052,-18.846 6.3935,-7.4519 8.6079,6.6727 10.1598,7.202 13.3757,4.5624 l 3.6382,-2.9858 -22.7315,-20.0931 c -25.9093,-22.9017 -39.594,-26.3429 -19.9121,-5.0067 12.747,13.8184 7.4137,18.919 -7.1127,6.8027 -14.9884,-12.5014 -19.9144,-5.6632 -6.022,8.3591 l 9.0564,9.141 -156.3764,166.0257 c -18.8526,20.4328 -36.2772,39.3775 -38.7237,42.097 -3.5209,3.9144 -3.8202,5.5213 -1.4333,7.7118 2.9436,2.7016 15.3837,-12.3286 39.5802,-37.0725 z"
       id="path81-8-6-2-7-7-3"
       class="doubleStitch"
       style="stroke-width:0.51704" /><path
       d="m 2353.0218,3114.822 99.7456,-211.3713 9.425,4.3162 c 19.596,8.9741 26.2896,1.4452 7.4015,-8.3246 -16.5532,-8.5625 -13.7063,-15.3712 3.7873,-9.0588 10.2446,3.6967 11.8842,3.7223 14.1307,0.2206 l 2.5417,-3.9614 -27.8153,-12.1141 c -31.704,-13.8077 -45.7834,-12.8662 -20.4865,1.37 16.3839,9.2202 12.8809,15.7155 -4.6713,8.6629 -18.1103,-7.277 -20.6905,0.7462 -3.1544,9.8074 l 11.4318,5.907 -97.6331,206.1212 c -11.6422,25.2463 -22.3841,48.6371 -23.874,51.9781 -2.144,4.8085 -1.9338,6.4293 1.0117,7.7782 3.6325,1.6636 10.8384,-16.4678 26.2365,-47.4617 z"
       id="path81-8-6-2-7-7-6-5"
       class="doubleStitch"
       style="stroke-width:0.51704" /><path
       d="m 2326.3822,3108.1486 26.9875,-232.1611 10.3097,1.0789 c 21.4363,2.2429 25.3738,-7.0297 4.3543,-10.2531 -18.4213,-2.825 -17.899,-10.1865 0.6946,-9.794 10.8888,0.23 12.4507,-0.2696 13.4607,-4.3056 l 1.1427,-4.5657 -30.2278,-2.5928 c -34.4538,-2.9548 -47.4946,2.4356 -18.9751,7.8434 18.471,3.5027 17.2268,10.7767 -1.6588,9.7014 -19.4859,-1.1095 -19.3678,7.3175 0.1444,10.3013 l 12.7198,1.945 -26.6631,226.5111 c -2.9659,27.6428 -5.6718,53.2394 -6.0162,56.8813 -0.4953,5.2415 0.2217,6.7103 3.4435,7.0476 3.9736,0.4158 5.009,-19.0674 9.6978,-53.3564 z"
       id="path81-8-6-2-7-7-6-0-0"
       class="doubleStitch"
       style="stroke-width:0.51704" /><path
       d="m 1914.8875,2713.0531 -2.6796,-233.709 h -10.3664 c -21.5531,0 -24.5043,-9.632 -3.2633,-10.6504 18.6152,-0.8927 18.8618,-8.2686 0.3283,-9.8132 -10.8536,-0.9045 -12.3549,-1.5638 -12.9394,-5.6829 l -0.6613,-4.66 30.3335,0.5673 c 34.5741,0.6466 46.983,7.365 18.0555,9.7756 -18.735,1.5614 -18.2546,8.9252 0.6404,9.8213 19.4957,0.9244 18.5011,9.2932 -1.2157,10.2302 l -12.8532,0.6108 2.9452,228.0559 c 0.073,27.8014 0.1003,53.5407 0.064,57.1986 -0.053,5.2645 -0.9189,6.6507 -4.1586,6.6507 -3.9954,0 -2.9977,-19.485 -4.0926,-54.0761 z"
       id="path81-8-6-5"
       class="doubleStitch"
       style="stroke-width:0.51704" /><path
       d="m 1941.5128,2715.5854 59.6903,-225.9737 -9.9917,-2.7622 c -20.7738,-5.743 -21.0517,-15.8132 -0.3075,-11.135 18.1803,4.0997 20.3833,-2.9437 2.9314,-9.3708 -10.2203,-3.7639 -11.4915,-4.7995 -10.9573,-8.9254 l 0.6041,-4.6676 29.0858,8.6292 c 33.1519,9.8359 43.322,19.6177 14.798,14.2332 -18.4737,-3.4871 -19.9728,3.7384 -1.9997,9.6368 18.5445,6.0857 15.3559,13.887 -3.8976,9.5365 l -12.5513,-2.836 -57.9282,220.5958 c -7.3374,26.8157 -14.1694,51.6318 -15.1792,55.1478 -1.4538,5.0599 -2.6578,6.1654 -5.7803,5.302 -3.851,-1.0646 2.3028,-19.5792 10.4642,-53.2115 z"
       id="path81-8-6-2-9"
       class="doubleStitch"
       style="stroke-width:0.51704" /><path
       d="m 1966.1051,2723.6229 119.0834,-201.1124 -8.8589,-5.3837 c -18.4186,-11.1933 -15.9382,-20.9571 2.7424,-10.7963 16.3716,8.9046 20.4128,2.7296 5.3769,-8.2157 -8.8054,-6.4095 -9.746,-7.7527 -8.1063,-11.5763 l 1.8549,-4.3257 25.6277,16.2381 c 29.2101,18.5083 36.3255,30.6939 10.3529,17.7307 -16.8212,-8.3954 -20.2351,-1.8529 -4.5534,8.7256 16.1805,10.9148 10.9842,17.55 -6.3517,8.1111 l -11.3013,-6.1532 -115.9205,196.4196 c -14.3758,23.7962 -27.7199,45.8064 -29.6506,48.9134 -2.7794,4.4715 -4.2393,5.2062 -7.0078,3.5238 -3.4143,-2.075 7.5577,-18.2081 24.5863,-48.3372 z"
       id="path81-8-6-2-7-6"
       class="doubleStitch"
       style="stroke-width:0.51704" /><path
       d="m 1989.0268,2740.066 170.3699,-160.0034 -7.0093,-7.6372 c -14.5739,-15.879 -9.4731,-24.5664 5.6397,-9.606 13.245,13.1109 18.846,8.3052 7.4519,-6.3935 -6.6727,-8.6079 -7.202,-10.1598 -4.5624,-13.3757 l 2.9858,-3.6382 20.0931,22.7315 c 22.9017,25.9093 26.3429,39.594 5.0067,19.9121 -13.8184,-12.747 -18.919,-7.4137 -6.8027,7.1127 12.5014,14.9884 5.6632,19.9144 -8.3591,6.022 l -9.141,-9.0564 -166.0257,156.3764 c -20.4328,18.8526 -39.3775,36.2772 -42.097,38.7237 -3.9144,3.5209 -5.5213,3.8202 -7.7118,1.4333 -2.7016,-2.9436 12.3286,-15.3837 37.0725,-39.5802 z"
       id="path81-8-6-2-7-7-9"
       class="doubleStitch"
       style="stroke-width:0.51704" /><path
       d="m 2004.1625,2763.8316 211.3713,-99.7456 -4.3162,-9.425 c -8.9741,-19.596 -1.4452,-26.2896 8.3246,-7.4015 8.5625,16.5532 15.3712,13.7063 9.0588,-3.7873 -3.6967,-10.2446 -3.7223,-11.8842 -0.2206,-14.1307 l 3.9614,-2.5417 12.1141,27.8153 c 13.8077,31.704 12.8662,45.7834 -1.37,20.4865 -9.2202,-16.3839 -15.7155,-12.8809 -8.6629,4.6713 7.277,18.1103 -0.7462,20.6905 -9.8074,3.1544 l -5.907,-11.4318 -206.1212,97.6331 c -25.2463,11.6422 -48.6371,22.3841 -51.9781,23.874 -4.8085,2.144 -6.4293,1.9338 -7.7782,-1.0117 -1.6636,-3.6325 16.4678,-10.8384 47.4617,-26.2365 z"
       id="path81-8-6-2-7-7-6-6"
       class="doubleStitch"
       style="stroke-width:0.51704" /><path
       d="m 2010.8359,2790.4712 232.1611,-26.9875 -1.0789,-10.3097 c -2.2429,-21.4363 7.0297,-25.3738 10.2531,-4.3543 2.825,18.4213 10.1865,17.899 9.794,-0.6946 -0.23,-10.8888 0.2696,-12.4507 4.3056,-13.4607 l 4.5657,-1.1427 2.5928,30.2278 c 2.9548,34.4538 -2.4356,47.4946 -7.8434,18.9751 -3.5027,-18.471 -10.7767,-17.2268 -9.7014,1.6588 1.1095,19.4859 -7.3175,19.3678 -10.3013,-0.1444 l -1.945,-12.7198 -226.5111,26.6631 c -27.6428,2.9659 -53.2394,5.6718 -56.8813,6.0162 -5.2415,0.4953 -6.7103,-0.2217 -7.0476,-3.4435 -0.4158,-3.9736 19.0674,-5.009 53.3564,-9.6978 z"
       id="path81-8-6-2-7-7-6-0-9"
       class="doubleStitch"
       style="stroke-width:0.51704" /><path
       d="m 1896.6021,2710.2856 -59.6903,-225.9737 9.9917,-2.7622 c 20.7738,-5.743 21.0517,-15.8132 0.3075,-11.135 -18.1803,4.0997 -20.3833,-2.9437 -2.9314,-9.3708 10.2203,-3.7639 11.4915,-4.7995 10.9573,-8.9254 l -0.6041,-4.6676 -29.0858,8.6292 c -33.1519,9.8359 -43.322,19.6177 -14.798,14.2332 18.4737,-3.4871 19.9728,3.7384 1.9997,9.6368 -18.5445,6.0857 -15.3559,13.887 3.8976,9.5365 l 12.5513,-2.836 57.9282,220.5958 c 7.3374,26.8157 14.1694,51.6318 15.1792,55.1478 1.4538,5.0599 2.6578,6.1654 5.7803,5.302 3.851,-1.0646 -2.3028,-19.5792 -10.4642,-53.2115 z"
       id="path81-8-6-2-6-2"
       class="doubleStitch"
       style="stroke-width:0.51704" /><path
       d="m 1872.0098,2718.3231 -119.0834,-201.1124 8.8589,-5.3837 c 18.4186,-11.1933 15.9382,-20.9571 -2.7424,-10.7963 -16.3716,8.9046 -20.4128,2.7296 -5.3769,-8.2157 8.8054,-6.4095 9.746,-7.7527 8.1063,-11.5763 l -1.8549,-4.3257 -25.6277,16.2381 c -29.2101,18.5083 -36.3255,30.6939 -10.3529,17.7307 16.8212,-8.3954 20.2351,-1.8529 4.5534,8.7256 -16.1805,10.9148 -10.9842,17.55 6.3517,8.1111 l 11.3013,-6.1532 115.9205,196.4196 c 14.3758,23.7962 27.7199,45.8064 29.6506,48.9134 2.7794,4.4715 4.2393,5.2062 7.0078,3.5238 3.4143,-2.075 -7.5577,-18.2081 -24.5863,-48.3372 z"
       id="path81-8-6-2-7-9-0"
       class="doubleStitch"
       style="stroke-width:0.51704" /><path
       d="m 1849.0881,2734.7662 -170.3699,-160.0034 7.0093,-7.6372 c 14.5739,-15.879 9.4731,-24.5664 -5.6397,-9.606 -13.245,13.1109 -18.846,8.3052 -7.4519,-6.3935 6.6727,-8.6079 7.202,-10.1598 4.5624,-13.3757 l -2.9858,-3.6382 -20.0931,22.7315 c -22.9017,25.9093 -26.3429,39.594 -5.0067,19.9121 13.8184,-12.747 18.919,-7.4137 6.8027,7.1127 -12.5014,14.9884 -5.6632,19.9144 8.3591,6.022 l 9.141,-9.0564 166.0257,156.3764 c 20.4328,18.8526 39.3775,36.2772 42.097,38.7237 3.9144,3.5209 5.5213,3.8202 7.7118,1.4333 2.7016,-2.9436 -12.3286,-15.3837 -37.0725,-39.5802 z"
       id="path81-8-6-2-7-7-3-8"
       class="doubleStitch"
       style="stroke-width:0.51704" /><path
       d="m 1833.9524,2758.5318 -211.3713,-99.7456 4.3162,-9.425 c 8.9741,-19.596 1.4452,-26.2896 -8.3246,-7.4015 -8.5625,16.5532 -15.3712,13.7063 -9.0588,-3.7873 3.6967,-10.2446 3.7223,-11.8842 0.2206,-14.1307 l -3.9614,-2.5417 -12.1141,27.8153 c -13.8077,31.704 -12.8662,45.7834 1.37,20.4865 9.2202,-16.3839 15.7155,-12.8809 8.6629,4.6713 -7.277,18.1103 0.7462,20.6905 9.8074,3.1544 l 5.907,-11.4318 206.1212,97.6331 c 25.2463,11.6422 48.6371,22.3841 51.9781,23.874 4.8085,2.144 6.4293,1.9338 7.7782,-1.0117 1.6636,-3.6325 -16.4678,-10.8384 -47.4617,-26.2365 z"
       id="path81-8-6-2-7-7-6-5-8"
       class="doubleStitch"
       style="stroke-width:0.51704" /><path
       d="m 1827.279,2785.1714 -232.1611,-26.9875 1.0789,-10.3097 c 2.2429,-21.4363 -7.0297,-25.3738 -10.2531,-4.3543 -2.825,18.4213 -10.1865,17.899 -9.794,-0.6946 0.23,-10.8888 -0.2696,-12.4507 -4.3056,-13.4607 l -4.5657,-1.1427 -2.5928,30.2278 c -2.9548,34.4538 2.4356,47.4946 7.8434,18.9751 3.5027,-18.471 10.7767,-17.2268 9.7014,1.6588 -1.1095,19.4859 7.3175,19.3678 10.3013,-0.1444 l 1.945,-12.7198 226.5111,26.6631 c 27.6428,2.9659 53.2394,5.6718 56.8813,6.0162 5.2415,0.4953 6.7103,-0.2217 7.0476,-3.4435 0.4158,-3.9736 -19.0674,-5.009 -53.3564,-9.6978 z"
       id="path81-8-6-2-7-7-6-0-0-0"
       class="doubleStitch"
       style="stroke-width:0.51704" /><path
       style="stroke-width:2.04636"
       d="m 1617.1363,3579.506 c -6.7358,5.6132 -16.2619,7.5856 -32.5521,6.7401 -34.1885,-1.7748 -31.0499,-27.0907 3.4937,-28.1795 26.8179,-0.8444 42.1898,10.4959 29.0584,21.4394 z"
       id="path69-5-8-8-0-5-0"
       class="chain" /><path
       style="stroke-width:2.04636"
       d="m 1544.689,3556.4844 c -5.6132,-6.7358 -7.5856,-16.2619 -6.7401,-32.5521 1.7748,-34.1885 27.0907,-31.0499 28.1795,3.4937 0.8444,26.8179 -10.4959,42.1898 -21.4394,29.0584 z"
       id="path69-5-8-8-0-5-1-9"
       class="chain" /><path
       style="stroke-width:2.04636"
       d="m 2291.7719,3502.8961 c 5.6132,6.7358 7.5856,16.2619 6.7401,32.5521 -1.7748,34.1885 -27.0907,31.0499 -28.1795,-3.4937 -0.8444,-26.8179 10.4959,-42.1898 21.4394,-29.0584 z"
       id="path69-5-8-8-0-5-13"
       class="chain" /><path
       style="stroke-width:2.04636"
       d="m 2268.7503,3575.3434 c -6.7358,5.6132 -16.2619,7.5856 -32.5521,6.7401 -34.1885,-1.7748 -31.0499,-27.0907 3.4937,-28.1795 26.8179,-0.8444 42.1898,10.4959 29.0584,21.4394 z"
       id="path69-5-8-8-0-5-1-8"
       class="chain" /><path
       style="stroke-width:2.04636"
       d="m 2223.2168,2829.9502 c 6.7358,-5.6132 16.2619,-7.5856 32.5521,-6.7401 34.1885,1.7748 31.0499,27.0907 -3.4937,28.1795 -26.8179,0.8444 -42.1898,-10.4959 -29.0584,-21.4394 z"
       id="path69-5-8-8-0-5-5"
       class="chain" /><path
       style="stroke-width:2.04636"
       d="m 2295.6641,2852.9718 c 5.6132,6.7358 7.5856,16.2619 6.7401,32.5521 -1.7748,34.1885 -27.0907,31.0499 -28.1795,-3.4937 -0.8444,-26.8179 10.4959,-42.1898 21.4394,-29.0584 z"
       id="path69-5-8-8-0-5-1-1"
       class="chain" /></g></svg>
